<?xml version="1.0" encoding="UTF-8"?>
<svg width="25px" height="30px" viewBox="0 0 25 30" version="1.1" xmlns="http://www.w3.org/2000/svg" xmlns:xlink="http://www.w3.org/1999/xlink">
    <!-- Generator: Sketch 58 (84663) - https://sketch.com -->
    <title>Shape</title>
    <desc>Created with Sketch.</desc>
    <g id="Page-1" stroke="none" stroke-width="1" fill="none" fill-rule="evenodd">
        <g id="Streetwise" transform="translate(-191.000000, -1127.000000)" fill="#C0C0C0" fill-rule="nonzero">
            <path d="M191,1149.10526 C191,1150.50263 191.609375,1151.74211 192.5625,1152.61053 L192.5625,1155.42105 C192.5625,1156.28947 193.265625,1157 194.125,1157 L195.6875,1157 C196.554688,1157 197.25,1156.28947 197.25,1155.42105 L197.25,1153.84211 L209.75,1153.84211 L209.75,1155.42105 C209.75,1156.28947 210.445312,1157 211.3125,1157 L212.875,1157 C213.734375,1157 214.4375,1156.28947 214.4375,1155.42105 L214.4375,1152.61053 C215.390625,1151.74211 216,1150.50263 216,1149.10526 L216,1133.31579 C216,1127.78947 210.40625,1127 203.5,1127 C196.59375,1127 191,1127.78947 191,1133.31579 L191,1149.10526 Z M196.46875,1150.68421 C195.171875,1150.68421 194.125,1149.62632 194.125,1148.31579 C194.125,1147.00526 195.171875,1145.94737 196.46875,1145.94737 C197.765625,1145.94737 198.8125,1147.00526 198.8125,1148.31579 C198.8125,1149.62632 197.765625,1150.68421 196.46875,1150.68421 Z M210.53125,1150.68421 C209.234375,1150.68421 208.1875,1149.62632 208.1875,1148.31579 C208.1875,1147.00526 209.234375,1145.94737 210.53125,1145.94737 C211.828125,1145.94737 212.875,1147.00526 212.875,1148.31579 C212.875,1149.62632 211.828125,1150.68421 210.53125,1150.68421 Z M212.875,1141.21053 L194.125,1141.21053 L194.125,1133.31579 L212.875,1133.31579 L212.875,1141.21053 Z" id="Shape"></path>
        </g>
    </g>
</svg>