<?xml version="1.0" encoding="UTF-8"?>
<svg width="20px" height="20px" viewBox="0 0 20 20" version="1.1" xmlns="http://www.w3.org/2000/svg" xmlns:xlink="http://www.w3.org/1999/xlink">
    <!-- Generator: Sketch 59.1 (86144) - https://sketch.com -->
    <title>Combined Shape</title>
    <desc>Created with Sketch.</desc>
    <g id="Page-1" stroke="none" stroke-width="1" fill="none" fill-rule="evenodd">
        <g id="Streetwise" transform="translate(-670.000000, -684.000000)" fill="#AAAAAA">
            <path d="M680,684 C685.522847,684 690,688.477153 690,694 C690,699.522847 685.522847,704 680,704 C674.477153,704 670,699.522847 670,694 C670,688.477153 674.477153,684 680,684 Z M680.821289,697.578125 L679.413086,697.578125 L679.413086,699 L680.821289,699 L680.821289,697.578125 Z M680.219727,688.90332 C679.39941,688.90332 678.723798,689.124347 678.192871,689.566406 C677.661944,690.008466 677.40332,690.59635 677.416992,691.330078 L677.416992,691.330078 L677.4375,691.371094 L678.722656,691.371094 C678.722656,690.933592 678.868488,690.602052 679.160156,690.376465 C679.451824,690.150878 679.805011,690.038086 680.219727,690.038086 C680.698245,690.038086 681.066242,690.167967 681.32373,690.427734 C681.581219,690.687501 681.709961,691.058917 681.709961,691.541992 C681.709961,691.947593 681.614259,692.293944 681.422852,692.581055 C681.231444,692.868165 680.910159,693.278318 680.458984,693.811523 C679.994138,694.230796 679.707032,694.568033 679.597656,694.823242 C679.488281,695.078452 679.431315,695.536455 679.426758,696.197266 L679.426758,696.197266 L680.773438,696.197266 C680.773438,695.78255 680.799642,695.477215 680.852051,695.28125 C680.90446,695.085285 681.05371,694.864259 681.299805,694.618164 C681.828453,694.107745 682.253416,693.608726 682.574707,693.121094 C682.895998,692.633461 683.056641,692.095706 683.056641,691.507812 C683.056641,690.687496 682.808271,690.048342 682.311523,689.590332 C681.814776,689.132322 681.117518,688.90332 680.219727,688.90332 Z" id="Combined-Shape"></path>
        </g>
    </g>
</svg>